# xmcd
#
# Track frame offsets: 
#        150
#        26161
#        50164
#        68227
#        94432
#        116777
#        140138
#        158130
#        183905
#
# Disc length: 3074 seconds
#
# Revision: 0
# Processed by: cddbd v1.5.2PL0 Copyright (c) Steve Scherf et al.
# Submitted via: ExactAudioCopy v1.0b4
#
DISCID=890c0009
DTITLE=The Waterboys - Modern Blues
DYEAR=2015
DGENRE=Blues Rock
TTITLE0=Destinies Entwinted
TTITLE1=November Tale
TTITLE2=Still A Freak
TTITLE3=I Can See Elvis
TTITLE4=The Girl Who Slept For Scotland
TTITLE5=Rosalind (You Married The Wrong Guy)
TTITLE6=Beautiful Now
TTITLE7=Nearest Thing To Hip
TTITLE8=Long Strange Golden Road
EXTD=
EXTT0=
EXTT1=
EXTT2=
EXTT3=
EXTT4=
EXTT5=
EXTT6=
EXTT7=
EXTT8=
PLAYORDER=
